<?xml version="1.0" encoding="utf-8" standalone="yes"?><svg xmlns:xlink="http://www.w3.org/1999/xlink" xmlns="http://www.w3.org/2000/svg" focusable="false" preserveAspectRatio="xMinYMin" width="804" height="278" viewBox="-375 -135.5 804  278" style="background-color:white"><path style="opacity: 1;" stroke-width="1px" stroke="#495879" stroke-opacity="1" fill="#495879" fill-opacity="1" visibility="visible" d="M0.0,-7.5  C-30.6,0.0  -61.2,106.5  -91.8,106.5   -61.2,112.5  -30.6,10.5  0.0,7.5  Z"/><path style="opacity: 1;" stroke-width="1px" stroke="#495879" stroke-opacity="1" fill="#495879" fill-opacity="1" visibility="visible" d="M-224.0,53.5  C-233.8,55.0  -243.5,69.5  -253.3,69.5   -243.5,70.7  -233.8,57.1  -224.0,56.5  Z"/><path style="opacity: 1;" stroke-width="1px" stroke="#495879" stroke-opacity="1" fill="#495879" fill-opacity="1" visibility="visible" d="M-224.0,53.5  C-233.9,55.0  -243.9,32.5  -253.8,32.5   -243.9,33.7  -233.9,57.1  -224.0,56.5  Z"/><path style="opacity: 1;" stroke-width="1px" stroke="#495879" stroke-opacity="1" fill="#495879" fill-opacity="1" visibility="visible" d="M0.0,-7.5  C-30.4,0.0  -60.9,55.0  -91.3,55.0   -60.9,61.0  -30.4,10.5  0.0,7.5  Z"/><path style="opacity: 1;" stroke-width="1px" stroke="#495879" stroke-opacity="1" fill="#495879" fill-opacity="1" visibility="visible" d="M-216.0,-20.5  C-225.9,-19.0  -235.9,-4.5  -245.8,-4.5   -235.9,-3.3  -225.9,-16.9  -216.0,-17.5  Z"/><path style="opacity: 1;" stroke-width="1px" stroke="#495879" stroke-opacity="1" fill="#495879" fill-opacity="1" visibility="visible" d="M-216.0,-20.5  C-225.8,-19.0  -235.5,-41.5  -245.3,-41.5   -235.5,-40.3  -225.8,-16.9  -216.0,-17.5  Z"/><path style="opacity: 1;" stroke-width="1px" stroke="#495879" stroke-opacity="1" fill="#495879" fill-opacity="1" visibility="visible" d="M0.0,-7.5  C-30.4,0.0  -60.9,-19.0  -91.3,-19.0   -60.9,-13.0  -30.4,10.5  0.0,7.5  Z"/><path style="opacity: 1;" stroke-width="1px" stroke="#495879" stroke-opacity="1" fill="#495879" fill-opacity="1" visibility="visible" d="M0.0,-7.5  C-30.4,0.0  -60.9,-78.5  -91.3,-78.5   -60.9,-72.5  -30.4,10.5  0.0,7.5  Z"/><path style="opacity: 1;" stroke-width="1px" stroke="#495879" stroke-opacity="1" fill="#495879" fill-opacity="1" visibility="visible" d="M286.0,31.0  C295.8,32.5  305.5,51.5  315.3,51.5   305.5,52.7  295.8,34.6  286.0,34.0  Z"/><path style="opacity: 1;" stroke-width="1px" stroke="#495879" stroke-opacity="1" fill="#495879" fill-opacity="1" visibility="visible" d="M286.0,31.0  C295.9,32.5  305.9,14.5  315.8,14.5   305.9,15.7  295.9,34.6  286.0,34.0  Z"/><path style="opacity: 1;" stroke-width="1px" stroke="#495879" stroke-opacity="1" fill="#495879" fill-opacity="1" visibility="visible" d="M177.5,16.5  C187.4,18.0  197.4,32.5  207.3,32.5   197.4,33.7  187.4,20.1  177.5,19.5  Z"/><path style="opacity: 1;" stroke-width="1px" stroke="#495879" stroke-opacity="1" fill="#495879" fill-opacity="1" visibility="visible" d="M177.5,16.5  C187.4,18.0  197.4,-23.5  207.3,-23.5   197.4,-22.3  187.4,20.1  177.5,19.5  Z"/><path style="opacity: 1;" stroke-width="1px" stroke="#495879" stroke-opacity="1" fill="#495879" fill-opacity="1" visibility="visible" d="M0.0,-7.5  C29.9,0.0  59.9,18.0  89.8,18.0   59.9,24.0  29.9,10.5  0.0,7.5  Z"/><rect width="127.00" height="41.00" rx="0.0" ry="0.0" x="-63" y="-20" stroke-width="1px" stroke="#FF9933" fill="#CC0033" stroke-opacity="0.4" fill-opacity="0.4" visibility="hidden" style="opacity: 0;"/><path style="opacity: 0;" stroke-width="1px" stroke="#CC0033" stroke-opacity="0.4" fill-opacity="0.4" visibility="hidden" d="M-269.0,-23.5  C-254.0,3.0  -239.0,29.0  -224.0,55.0   -239.0,29.4  -254.0,3.7  -269.0,-22.5  Z"/><path style="opacity: 0;" stroke-width="1px" stroke="#CC0033" stroke-opacity="0.4" fill-opacity="0.4" visibility="hidden" d="M-130.0,-4.5  C-86.7,-2.7  -43.3,-1.3  0.0,0.0   -43.3,-0.9  -86.7,-2.0  -130.0,-3.5  Z"/><g preserveAspectRatio="none" focusable="true" width="100.00" height="100.00" transform="translate(-61.50,-18.50) scale(1.00,1.00)" test-id="1" visibility="visible" style="opacity: 1;"><rect width="127.00" height="43.00" rx="6.5" ry="6.5" x="-2" y="-3" stroke-width="1px" stroke="rgb(241,163,39)" fill="rgb(252,235,192)" stroke-opacity="0" fill-opacity="0" style="cursor: default;"/><rect width="123.00" height="37.00" rx="5.5" ry="5.5" x="0" y="0" stroke-width="1px" fill="rgb(80,157,192)" visibility="visible" style="cursor: default; opacity: 1;" stroke="#495879"/><text font-family="Verdana" font-size="13.4" font-style="normal" font-weight="bold" fill="#ffffff" visibility="visible" style="cursor: default; opacity: 1;" y="10" x="12"><tspan dy="1em" x="12">CHAMPAGNE</tspan></text><g preserveAspectRatio="none" focusable="true" width="0.00" height="20.80"/></g><g preserveAspectRatio="none" focusable="true" width="100.00" height="100.00" transform="translate(89.50,-18.00) scale(1.00,1.00)" test-id="15" visibility="visible" style="opacity: 1;"><rect width="91.00" height="42.00" rx="6.3" ry="6.3" x="-2" y="-3" stroke-width="1px" stroke="rgb(241,163,39)" fill="rgb(252,235,192)" stroke-opacity="0" fill-opacity="0" style="cursor: move;"/><line stroke-width="1px" stroke="#495879" stroke-opacity="1" visibility="visible" style="cursor: move; opacity: 1;" x1="0" y1="36" x2="87" y2="36"/><text font-family="Arial" font-size="13.4" font-style="normal" font-weight="bold" fill="rgb(82,92,97)" visibility="visible" style="cursor: move; opacity: 1;" y="10" x="12"><tspan dy="1em" x="12">vampires</tspan></text><ellipse width="6.00" height="6.00" rx="3" ry="3" cx="90" cy="36" stroke-width="1px" fill="#adbcdd" visibility="visible" style="cursor: default; opacity: 1;" stroke="#495879"/><g preserveAspectRatio="none" focusable="true" width="0.00" height="19.50"/></g><g preserveAspectRatio="none" focusable="true" width="100.00" height="100.00" transform="translate(207.00,-50.50) scale(1.00,1.00)" test-id="16" visibility="visible" style="opacity: 1;"><rect width="96.00" height="33.00" rx="5.0" ry="5.0" x="-2" y="-3" stroke-width="1px" stroke="rgb(241,163,39)" fill="rgb(252,235,192)" stroke-opacity="0" fill-opacity="0" style="cursor: move;"/><line stroke-width="1px" stroke="#495879" stroke-opacity="1" x1="0" y1="27" x2="92" y2="27" visibility="visible" style="cursor: move; opacity: 1;"/><text font-family="Arial" font-size="10.8" font-style="normal" font-weight="normal" fill="rgb(82,92,97)" visibility="visible" style="cursor: move; opacity: 1;" y="8" x="9"><tspan dy="1em" x="9">origineLegende</tspan></text><ellipse width="6.00" height="6.00" rx="3" ry="3" cx="5" cy="5" stroke-width="1px" fill="#adbcdd" visibility="hidden" style="cursor: default; opacity: 0;" stroke="#495879"/><g preserveAspectRatio="none" focusable="true" width="0.00" height="14.30"/></g><g preserveAspectRatio="none" focusable="true" width="100.00" height="100.00" transform="translate(207.00,5.50) scale(1.00,1.00)" test-id="17" visibility="visible" style="opacity: 1;"><rect width="82.00" height="33.00" rx="5.0" ry="5.0" x="-2" y="-3" stroke-width="1px" stroke="rgb(241,163,39)" fill="rgb(252,235,192)" stroke-opacity="0" fill-opacity="0" style="cursor: move;"/><line stroke-width="1px" stroke="#495879" stroke-opacity="1" x1="0" y1="27" x2="78" y2="27" visibility="visible" style="cursor: move; opacity: 1;"/><text font-family="Arial" font-size="10.8" font-style="normal" font-weight="normal" fill="rgb(82,92,97)" visibility="visible" style="cursor: move; opacity: 1;" y="8" x="9"><tspan dy="1em" x="9">filmographie</tspan></text><ellipse width="6.00" height="6.00" rx="3" ry="3" cx="81" cy="27" stroke-width="1px" fill="#adbcdd" visibility="visible" style="cursor: default; opacity: 1;" stroke="#495879"/><g preserveAspectRatio="none" focusable="true" width="0.00" height="14.30"/></g><g preserveAspectRatio="none" focusable="true" width="100.00" height="100.00" transform="translate(315.50,-12.50) scale(1.00,1.00)" test-id="19" visibility="visible" style="opacity: 1;"><rect width="69.00" height="33.00" rx="5.0" ry="5.0" x="-2" y="-3" stroke-width="1px" stroke="rgb(241,163,39)" fill="rgb(252,235,192)" stroke-opacity="0" fill-opacity="0" style="cursor: move;"/><line stroke-width="1px" stroke="#495879" stroke-opacity="1" x1="0" y1="27" x2="65" y2="27" visibility="visible" style="cursor: move; opacity: 1;"/><text font-family="Arial" font-size="10.8" font-style="normal" font-weight="normal" fill="rgb(82,92,97)" visibility="visible" style="cursor: move; opacity: 1;" y="8" x="9"><tspan dy="1em" x="9">historique</tspan></text><ellipse width="6.00" height="6.00" rx="3" ry="3" cx="5" cy="5" stroke-width="1px" fill="#adbcdd" visibility="hidden" style="cursor: default; opacity: 0;" stroke="#495879"/><g preserveAspectRatio="none" focusable="true" width="0.00" height="14.30"/></g><g preserveAspectRatio="none" focusable="true" width="100.00" height="100.00" transform="translate(315.00,24.50) scale(1.00,1.00)" test-id="18" visibility="visible" style="opacity: 1;"><rect width="84.00" height="33.00" rx="5.0" ry="5.0" x="-2" y="-3" stroke-width="1px" stroke="rgb(241,163,39)" fill="rgb(252,235,192)" stroke-opacity="0" fill-opacity="0" style="cursor: move;"/><line stroke-width="1px" stroke="#495879" stroke-opacity="1" x1="0" y1="27" x2="80" y2="27" visibility="visible" style="cursor: move; opacity: 1;"/><text font-family="Arial" font-size="10.8" font-style="normal" font-weight="normal" fill="rgb(82,92,97)" visibility="visible" style="cursor: move; opacity: 1;" y="8" x="9"><tspan dy="1em" x="9">affichesFilms</tspan></text><ellipse width="6.00" height="6.00" rx="3" ry="3" cx="5" cy="5" stroke-width="1px" fill="#adbcdd" visibility="hidden" style="cursor: default; opacity: 0;" stroke="#495879"/><g preserveAspectRatio="none" focusable="true" width="0.00" height="14.30"/></g><g preserveAspectRatio="none" focusable="true" width="100.00" height="100.00" transform="translate(-179.00,-105.50) scale(1.00,1.00)" test-id="33" visibility="visible" style="opacity: 1;"><rect width="92.00" height="33.00" rx="5.0" ry="5.0" x="-2" y="-3" stroke-width="1px" stroke="rgb(241,163,39)" fill="rgb(252,235,192)" stroke-opacity="0" fill-opacity="0" style="cursor: move;"/><line stroke-width="1px" stroke="#495879" stroke-opacity="1" visibility="visible" style="cursor: move; opacity: 1;" x1="0" y1="27" x2="88" y2="27"/><text font-family="Arial" font-size="10.8" font-style="normal" font-weight="normal" fill="rgb(82,92,97)" visibility="visible" style="cursor: move; opacity: 1;" y="8" x="9"><tspan dy="1em" x="9">audioChanson</tspan></text><ellipse width="6.00" height="6.00" rx="3" ry="3" cx="5" cy="5" stroke-width="1px" fill="#adbcdd" visibility="hidden" style="cursor: default; opacity: 0;" stroke="#495879"/><g preserveAspectRatio="none" focusable="true" width="0.00" height="14.30"/></g><g preserveAspectRatio="none" focusable="true" width="100.00" height="100.00" transform="translate(-215.00,-55.00) scale(1.00,1.00)" test-id="4" visibility="visible" style="opacity: 1;"><rect width="128.00" height="42.00" rx="6.3" ry="6.3" x="-2" y="-3" stroke-width="1px" stroke="rgb(241,163,39)" fill="rgb(252,235,192)" stroke-opacity="0" fill-opacity="0" style="cursor: move;"/><line stroke-width="1px" stroke="#495879" stroke-opacity="1" visibility="visible" style="cursor: move; opacity: 1;" x1="0" y1="36" x2="124" y2="36"/><text font-family="Arial" font-size="13.4" font-style="normal" font-weight="bold" fill="rgb(82,92,97)" visibility="visible" style="cursor: move; opacity: 1;" y="10" x="12"><tspan dy="1em" x="12">jacquesHigelin</tspan></text><ellipse width="6.00" height="6.00" rx="3" ry="3" cx="-3" cy="36" stroke-width="1px" fill="#adbcdd" visibility="visible" style="cursor: default; opacity: 1;" stroke="#495879"/><g preserveAspectRatio="none" focusable="true" width="0.00" height="19.50"/></g><g preserveAspectRatio="none" focusable="true" width="100.00" height="100.00" transform="translate(-295.00,-68.50) scale(1.00,1.00)" test-id="11" visibility="visible" style="opacity: 1;"><rect width="54.00" height="33.00" rx="5.0" ry="5.0" x="-2" y="-3" stroke-width="1px" stroke="rgb(241,163,39)" fill="rgb(252,235,192)" stroke-opacity="0" fill-opacity="0" style="cursor: move;"/><line stroke-width="1px" stroke="#495879" stroke-opacity="1" x1="0" y1="27" x2="50" y2="27" visibility="visible" style="cursor: move; opacity: 1;"/><text font-family="Arial" font-size="10.8" font-style="normal" font-weight="normal" fill="rgb(82,92,97)" visibility="visible" style="cursor: move; opacity: 1;" y="8" x="9"><tspan dy="1em" x="9">photos</tspan></text><ellipse width="6.00" height="6.00" rx="3" ry="3" cx="5" cy="5" stroke-width="1px" fill="#adbcdd" visibility="hidden" style="cursor: default; opacity: 0;" stroke="#495879"/><g preserveAspectRatio="none" focusable="true" width="0.00" height="14.30"/></g><g preserveAspectRatio="none" focusable="true" width="100.00" height="100.00" transform="translate(-324.50,-31.50) scale(1.00,1.00)" test-id="9" visibility="visible" style="opacity: 1;"><rect width="83.00" height="33.00" rx="5.0" ry="5.0" x="-2" y="-3" stroke-width="1px" stroke="rgb(241,163,39)" fill="rgb(252,235,192)" stroke-opacity="0" fill-opacity="0" style="cursor: move;"/><line stroke-width="1px" stroke="#495879" stroke-opacity="1" x1="0" y1="27" x2="79" y2="27" visibility="visible" style="cursor: move; opacity: 1;"/><text font-family="Arial" font-size="10.8" font-style="normal" font-weight="normal" fill="rgb(82,92,97)" visibility="visible" style="cursor: move; opacity: 1;" y="8" x="9"><tspan dy="1em" x="9">discographie</tspan></text><ellipse width="6.00" height="6.00" rx="3" ry="3" cx="5" cy="5" stroke-width="1px" fill="#adbcdd" visibility="hidden" style="cursor: default; opacity: 0;" stroke="#495879"/><g preserveAspectRatio="none" focusable="true" width="0.00" height="14.30"/></g><g preserveAspectRatio="none" focusable="true" width="100.00" height="100.00" transform="translate(-223.00,19.00) scale(1.00,1.00)" test-id="3" visibility="visible" style="opacity: 1;"><rect width="136.00" height="42.00" rx="6.3" ry="6.3" x="-2" y="-3" stroke-width="1px" stroke="rgb(241,163,39)" fill="rgb(252,235,192)" stroke-opacity="0" fill-opacity="0" style="cursor: move;"/><line stroke-width="1px" stroke="#495879" stroke-opacity="1" visibility="visible" style="cursor: move; opacity: 1;" x1="0" y1="36" x2="132" y2="36"/><text font-family="Arial" font-size="13.4" font-style="normal" font-weight="bold" fill="rgb(82,92,97)" visibility="visible" style="cursor: move; opacity: 1;" y="10" x="12"><tspan dy="1em" x="12">parolesChanson</tspan></text><ellipse width="6.00" height="6.00" rx="3" ry="3" cx="-3" cy="36" stroke-width="1px" fill="#adbcdd" visibility="visible" style="cursor: default; opacity: 1;" stroke="#495879"/><g preserveAspectRatio="none" focusable="true" width="0.00" height="19.50"/></g><g preserveAspectRatio="none" focusable="true" width="100.00" height="100.00" transform="translate(-332.50,5.50) scale(1.00,1.00)" test-id="5" visibility="visible" style="opacity: 1;"><rect width="83.00" height="33.00" rx="5.0" ry="5.0" x="-2" y="-3" stroke-width="1px" stroke="rgb(241,163,39)" fill="rgb(252,235,192)" stroke-opacity="0" fill-opacity="0" style="cursor: move;"/><line stroke-width="1px" stroke="#495879" stroke-opacity="1" x1="0" y1="27" x2="79" y2="27" visibility="visible" style="cursor: move; opacity: 1;"/><text font-family="Arial" font-size="10.8" font-style="normal" font-weight="normal" fill="rgb(82,92,97)" visibility="visible" style="cursor: move; opacity: 1;" y="8" x="9"><tspan dy="1em" x="9">texteParoles</tspan></text><ellipse width="6.00" height="6.00" rx="3" ry="3" cx="5" cy="5" stroke-width="1px" fill="#adbcdd" visibility="hidden" style="cursor: default; opacity: 0;" stroke="#495879"/><g preserveAspectRatio="none" focusable="true" width="0.00" height="14.30"/></g><g preserveAspectRatio="none" focusable="true" width="100.00" height="100.00" transform="translate(-345.00,42.50) scale(1.00,1.00)" test-id="6" visibility="visible" style="opacity: 1;"><rect width="96.00" height="33.00" rx="5.0" ry="5.0" x="-2" y="-3" stroke-width="1px" stroke="rgb(241,163,39)" fill="rgb(252,235,192)" stroke-opacity="0" fill-opacity="0" style="cursor: move;"/><line stroke-width="1px" stroke="#495879" stroke-opacity="1" x1="0" y1="27" x2="92" y2="27" visibility="visible" style="cursor: move; opacity: 1;"/><text font-family="Arial" font-size="10.8" font-style="normal" font-weight="normal" fill="rgb(82,92,97)" visibility="visible" style="cursor: move; opacity: 1;" y="8" x="9"><tspan dy="1em" x="9">analyseParoles</tspan></text><ellipse width="6.00" height="6.00" rx="3" ry="3" cx="5" cy="5" stroke-width="1px" fill="#adbcdd" visibility="hidden" style="cursor: default; opacity: 0;" stroke="#495879"/><g preserveAspectRatio="none" focusable="true" width="0.00" height="14.30"/></g><g preserveAspectRatio="none" focusable="true" width="100.00" height="100.00" transform="translate(-182.50,79.50) scale(1.00,1.00)" test-id="12" visibility="visible" style="opacity: 1;"><rect width="95.00" height="33.00" rx="5.0" ry="5.0" x="-2" y="-3" stroke-width="1px" stroke="rgb(241,163,39)" fill="rgb(252,235,192)" stroke-opacity="0" fill-opacity="0" style="cursor: move;"/><line stroke-width="1px" stroke="#495879" stroke-opacity="1" visibility="visible" style="cursor: move; opacity: 1;" x1="0" y1="27" x2="91" y2="27"/><text font-family="Arial" font-size="10.8" font-style="normal" font-weight="normal" fill="rgb(82,92,97)" visibility="visible" style="cursor: move; opacity: 1;" y="8" x="9"><tspan dy="1em" x="9">albumChanson</tspan></text><ellipse width="6.00" height="6.00" rx="3" ry="3" cx="5" cy="5" stroke-width="1px" fill="#adbcdd" visibility="hidden" style="cursor: default; opacity: 0;" stroke="#495879"/><g preserveAspectRatio="none" focusable="true" width="0.00" height="14.30"/></g><rect width="50.00" height="6.00" rx="0.0" ry="0.0" x="-178" y="-7" stroke-width="1px" stroke="#FF9933" fill="#CC0033" stroke-opacity="0.4" fill-opacity="0.4" visibility="hidden" style="opacity: 0;"/></svg>